<?xml version="1.0" encoding="UTF-8" standalone="no"?>
<!-- Created with Inkscape (http://www.inkscape.org/) -->

<svg
   xmlns:dc="http://purl.org/dc/elements/1.1/"
   xmlns:cc="http://creativecommons.org/ns#"
   xmlns:rdf="http://www.w3.org/1999/02/22-rdf-syntax-ns#"
   xmlns:svg="http://www.w3.org/2000/svg"
   xmlns="http://www.w3.org/2000/svg"
   xmlns:sodipodi="http://sodipodi.sourceforge.net/DTD/sodipodi-0.dtd"
   xmlns:inkscape="http://www.inkscape.org/namespaces/inkscape"
   width="81"
   height="16"
   id="svg4031"
   version="1.1"
   inkscape:version="0.48.4 r9939"
   sodipodi:docname="conduit-v2.svg">
  <defs
     id="defs4033">
    <clipPath
       clipPathUnits="userSpaceOnUse"
       id="clipPath5173">
      <path
         style="fill:#000000;fill-opacity:1;stroke:none;display:inline"
         clip-path="none"
         d="M -1,1 -1,17 80,17 80,1 -1,1 z M 5.03125,9 40,9 40,13 5.03125,13 c -0.6697611,0 -1.1875,-0.446 -1.1875,-1 l 0,-2 c 0,-0.554 0.5177389,-1 1.1875,-1 z"
         id="path5175"
         inkscape:connector-curvature="0" />
    </clipPath>
  </defs>
  <sodipodi:namedview
     id="base"
     pagecolor="#ffffff"
     bordercolor="#666666"
     borderopacity="1.0"
     inkscape:pageopacity="0.0"
     inkscape:pageshadow="2"
     inkscape:zoom="11.313709"
     inkscape:cx="47.201127"
     inkscape:cy="8.0949611"
     inkscape:current-layer="layer1"
     showgrid="true"
     inkscape:grid-bbox="true"
     inkscape:document-units="px"
     inkscape:window-width="1920"
     inkscape:window-height="1017"
     inkscape:window-x="-8"
     inkscape:window-y="-8"
     inkscape:window-maximized="1"
     fit-margin-top="1"
     fit-margin-left="1"
     fit-margin-right="1"
     fit-margin-bottom="1">
    <inkscape:grid
       type="xygrid"
       id="grid4039"
       empspacing="10"
       dotted="false"
       visible="true"
       enabled="true"
       snapvisiblegridlinesonly="true"
       spacingx="1px"
       spacingy="1px"
       originx="1px"
       originy="1px" />
  </sodipodi:namedview>
  <metadata
     id="metadata4036">
    <rdf:RDF>
      <cc:Work
         rdf:about="">
        <dc:format>image/svg+xml</dc:format>
        <dc:type
           rdf:resource="http://purl.org/dc/dcmitype/StillImage" />
      </cc:Work>
    </rdf:RDF>
  </metadata>
  <g
     inkscape:groupmode="layer"
     id="layer5"
     inkscape:label="mask"
     style="display:inline"
     transform="translate(1,5)" />
  <g
     id="layer1"
     inkscape:label="text"
     inkscape:groupmode="layer"
     transform="translate(1,-1)">
    <g
       id="g5055"
       clip-path="url(#clipPath5173)">
      <path
         style="fill:#000000;fill-opacity:1;stroke:none"
         d="m 5,6 c -2.7614237,0 -5,2.2385763 -5,5 0,2.761424 2.2385763,5 5,5 2.0456925,0 3.7882278,-1.240478 4.5625,-3 L 7.21875,13 C 6.6696762,13.608906 5.8844678,14 5,14 3.3431458,14 2,12.656854 2,11 2,9.3431458 3.3431458,8 5,8 5.8844678,8 6.6696762,8.3910945 7.21875,9 L 9.5625,9 C 8.7882278,7.2404781 7.0456925,6 5,6 z"
         id="path4985"
         inkscape:connector-curvature="0" />
      <path
         inkscape:connector-curvature="0"
         style="fill:#000000;fill-opacity:1;stroke:none"
         d="m 22,6 0,5 0,5 2,0 0,-1.03125 L 24,11 c 0,-1.6568542 1.343146,-3 3,-3 1.656854,0 3,1.3431458 3,3 l 0,3.96875 0,1.03125 2,0 0,-5 C 32,8.2385763 29.761424,6 27,6 25.86261,6 24.8401,6.391592 24,7.03125 L 24,6 22,6 z"
         id="path4987" />
      <path
         inkscape:connector-curvature="0"
         style="fill:#000000;fill-opacity:1;stroke:none"
         d="m 16,6 c -2.761424,0 -5,2.2385763 -5,5 0,2.761424 2.238576,5 5,5 2.761424,0 5,-2.238576 5,-5 0,-2.7614237 -2.238576,-5 -5,-5 z m 0,2 c 1.656854,0 3,1.3431458 3,3 0,1.656854 -1.343146,3 -3,3 -1.656854,0 -3,-1.343146 -3,-3 0,-1.6568542 1.343146,-3 3,-3 z"
         id="path4989" />
      <path
         inkscape:connector-curvature="0"
         style="fill:#000000;fill-opacity:1;stroke:none"
         d="m 54,16 0,-5 0,-5.0000003 -2,0 0,1.03125 L 52,11 c 0,1.656854 -1.343146,3 -3,3 -1.656854,0 -3,-1.343146 -3,-3 l 0,-3.9687503 0,-1.03125 -2,0 L 44,11 c 0,2.761424 2.238576,5 5,5 1.13739,0 2.1599,-0.391592 3,-1.03125 L 52,16 l 2,0 z"
         id="path4991" />
      <path
         inkscape:connector-curvature="0"
         style="fill:#000000;fill-opacity:1;stroke:none"
         d="m 41,2 0,5.03125 C 40.1599,6.3915919 39.13739,6 38,6 c -2.761424,0 -5,2.238576 -5,5 0,2.761424 2.238576,5 5,5 1.13739,0 2.1599,-0.391592 3,-1.03125 L 41,16 l 2,0 0,-5 0,-9 -2,0 z m -3,6 c 1.656854,0 3,1.3431455 3,3 0,1.656854 -1.343146,3 -3,3 -1.656854,0 -3,-1.343146 -3,-3 0,-1.6568545 1.343146,-3 3,-3 z"
         id="path4993" />
      <path
         inkscape:connector-curvature="0"
         style="fill:#000000;fill-opacity:1;stroke:none"
         d="m 56,3 c -0.552285,0 -1,0.4477153 -1,1 0,0.5522847 0.447715,1 1,1 0.552285,0 1,-0.4477153 1,-1 0,-0.5522847 -0.447715,-1 -1,-1 z m -1,3 0,10 2,0 0,-10 -2,0 z"
         id="path4995" />
      <path
         inkscape:connector-curvature="0"
         style="fill:#000000;fill-opacity:1;stroke:none"
         d="m 58,2 0,9 c 0,2.761424 2.238576,5 5,5 l 2,0 0,-2 -2,0 c -1.656854,0 -3,-1.343146 -3,-3 l 0,-3 5,0 0,-2 -5,0 0,-4 -2,0 z"
         id="path4997" />
      <path
         style="fill:#00c900;fill-opacity:1;stroke:none;display:inline"
         d="m 71,6.0000002 c -2.761424,0 -5,2.2385763 -5,4.9999998 0,2.761424 2.238576,5 5,5 2.045692,0 3.788228,-1.240478 4.5625,-3 l -2.34375,0 C 72.669676,13.608906 71.884468,14 71,14 c -1.656854,0 -3,-1.343146 -3,-3 0,-1.656854 1.343146,-2.9999998 3,-2.9999998 0.884468,0 1.669676,0.3910945 2.21875,1 l 2.34375,0 c -0.774272,-1.7595219 -2.516808,-3 -4.5625,-3 z"
         id="path4985-6"
         inkscape:connector-curvature="0" />
      <path
         inkscape:connector-curvature="0"
         style="fill:#00c900;fill-opacity:1;stroke:none;display:inline"
         d="m 78,3.0000002 c -0.552285,0 -1,0.4477153 -1,1 0,0.5522847 0.447715,1 1,1 0.552285,0 1,-0.4477153 1,-1 0,-0.5522847 -0.447715,-1 -1,-1 z m -1,3 L 77,16 l 2,0 0,-9.9999998 -2,0 z"
         id="path4995-1" />
    </g>
  </g>
  <g
     inkscape:groupmode="layer"
     id="layer4"
     inkscape:label="greenbar"
     style="display:inline"
     sodipodi:insensitive="true"
     transform="translate(1,5)">
    <rect
       transform="translate(0,-6)"
       style="fill:#00c900;fill-opacity:1;stroke:none"
       id="rect4063"
       width="35"
       height="2"
       x="4"
       y="10"
       rx="0.99999988"
       ry="0.99999994" />
  </g>
</svg>
